<?xml version="1.0" encoding="utf-8"?><svg viewBox="0 0 304 99" xmlns="http://www.w3.org/2000/svg" xmlns:xlink="http://www.w3.org/1999/xlink"><style>:root>svg{display:none}:root>svg:target{display:block}</style><svg fill="none" viewBox="0 0 81 93" id="icon-card" xmlns="http://www.w3.org/2000/svg"><g filter="url(#afilter0_d_1_275)"><circle cx="31.69" cy="72.431" r="7" transform="rotate(-15 31.69 72.43)" stroke="#2E3A59" stroke-width="2"/><path stroke="#2E3A59" stroke-width="2" d="M30.997 31.206l28.978-7.765 7.764 28.978-28.977 7.765z"/><g filter="url(#afilter1_d_1_275)"><path stroke="#00C368" stroke-width="2" d="M43.105 30.032l5.796-1.553 2.07 7.728-5.795 1.552z"/></g></g><defs><filter id="afilter0_d_1_275" x="19.688" y="18.216" width="61.276" height="74.216" filterUnits="userSpaceOnUse" color-interpolation-filters="sRGB"><feFlood flood-opacity="0" result="BackgroundImageFix"/><feColorMatrix in="SourceAlpha" values="0 0 0 0 0 0 0 0 0 0 0 0 0 0 0 0 0 0 127 0" result="hardAlpha"/><feOffset dx="4" dy="4"/><feGaussianBlur stdDeviation="4"/><feColorMatrix values="0 0 0 0 0.65098 0 0 0 0 0.670588 0 0 0 0 0.741176 0 0 0 1 0"/><feBlend in2="BackgroundImageFix" result="effect1_dropShadow_1_275"/><feBlend in="SourceGraphic" in2="effect1_dropShadow_1_275" result="shape"/></filter><filter id="afilter1_d_1_275" x="39.88" y="25.254" width="18.316" height="19.73" filterUnits="userSpaceOnUse" color-interpolation-filters="sRGB"><feFlood flood-opacity="0" result="BackgroundImageFix"/><feColorMatrix in="SourceAlpha" values="0 0 0 0 0 0 0 0 0 0 0 0 0 0 0 0 0 0 127 0" result="hardAlpha"/><feOffset dx="2" dy="2"/><feGaussianBlur stdDeviation="2"/><feColorMatrix values="0 0 0 0 0 0 0 0 0 0.764706 0 0 0 0 0.407843 0 0 0 0.4 0"/><feBlend in2="BackgroundImageFix" result="effect1_dropShadow_1_275"/><feBlend in="SourceGraphic" in2="effect1_dropShadow_1_275" result="shape"/></filter></defs></svg><svg fill="none" viewBox="0 0 19 11" id="icon-down" xmlns="http://www.w3.org/2000/svg"><path d="M18.7.3c-.4-.4-1-.4-1.4 0L9.5 8.1 1.7.3C1.3-.1.7-.1.3.3c-.4.4-.4 1 0 1.4l8.5 8.5c.4.4 1 .4 1.4 0l8.5-8.5c.4-.4.4-1 0-1.4z" fill="#A6ABBD"/></svg><svg fill="none" viewBox="0 0 73 88" id="icon-file" xmlns="http://www.w3.org/2000/svg"><g filter="url(#cfilter0_d_1_239)"><rect x="5.5" y="5" width="54" height="70" rx="3" stroke="#2E3A59" stroke-width="2"/><path d="M13.5 5h38v5a3 3 0 01-3 3h-32a3 3 0 01-3-3V5z" stroke="#2E3A59" stroke-width="2"/><g filter="url(#cfilter1_d_1_239)"><path d="M13.5 61a3 3 0 013-3h32a3 3 0 013 3v2a3 3 0 01-3 3h-32a3 3 0 01-3-3v-2z" stroke="#00C368" stroke-width="2"/></g></g><defs><filter id="cfilter0_d_1_239" x=".5" y="0" width="72" height="88" filterUnits="userSpaceOnUse" color-interpolation-filters="sRGB"><feFlood flood-opacity="0" result="BackgroundImageFix"/><feColorMatrix in="SourceAlpha" values="0 0 0 0 0 0 0 0 0 0 0 0 0 0 0 0 0 0 127 0" result="hardAlpha"/><feOffset dx="4" dy="4"/><feGaussianBlur stdDeviation="4"/><feColorMatrix values="0 0 0 0 0.65098 0 0 0 0 0.670588 0 0 0 0 0.741176 0 0 0 1 0"/><feBlend in2="BackgroundImageFix" result="effect1_dropShadow_1_239"/><feBlend in="SourceGraphic" in2="effect1_dropShadow_1_239" result="shape"/></filter><filter id="cfilter1_d_1_239" x="10.5" y="55" width="48" height="18" filterUnits="userSpaceOnUse" color-interpolation-filters="sRGB"><feFlood flood-opacity="0" result="BackgroundImageFix"/><feColorMatrix in="SourceAlpha" values="0 0 0 0 0 0 0 0 0 0 0 0 0 0 0 0 0 0 127 0" result="hardAlpha"/><feOffset dx="2" dy="2"/><feGaussianBlur stdDeviation="2"/><feColorMatrix values="0 0 0 0 0 0 0 0 0 0.764706 0 0 0 0 0.407843 0 0 0 0.4 0"/><feBlend in2="BackgroundImageFix" result="effect1_dropShadow_1_239"/><feBlend in="SourceGraphic" in2="effect1_dropShadow_1_239" result="shape"/></filter></defs></svg><svg fill="none" viewBox="0 0 11 19" id="icon-left" xmlns="http://www.w3.org/2000/svg"><path d="M10.2 18.7c.4-.4.4-1 0-1.4L2.4 9.5l7.8-7.8c.4-.4.4-1 0-1.4-.4-.4-1-.4-1.4 0L.3 8.8c-.4.4-.4 1 0 1.4l8.5 8.5c.4.4 1 .4 1.4 0z" fill="#A6ABBD"/></svg><svg fill="none" viewBox="0 0 80 88" id="icon-people" xmlns="http://www.w3.org/2000/svg"><g filter="url(#efilter0_d_1_266)" stroke="#2E3A59" stroke-width="2"><path d="M64 43.5V29C64 15.745 53.255 5 40 5h-8C18.745 5 8 15.745 8 29v14.5"/><path d="M13 35c0-12.703 10.297-23 23-23s23 10.297 23 23v8c0 12.703-10.297 23-23 23S13 55.703 13 43v-8z"/><path d="M33.5 74.5H40c13.255 0 24-10.745 24-24V40"/><rect x="5" y="36" width="6" height="14" rx="3"/><rect x="61" y="36" width="6" height="14" rx="3"/></g><defs><filter id="efilter0_d_1_266" x="0" y="0" width="80" height="87.5" filterUnits="userSpaceOnUse" color-interpolation-filters="sRGB"><feFlood flood-opacity="0" result="BackgroundImageFix"/><feColorMatrix in="SourceAlpha" values="0 0 0 0 0 0 0 0 0 0 0 0 0 0 0 0 0 0 127 0" result="hardAlpha"/><feOffset dx="4" dy="4"/><feGaussianBlur stdDeviation="4"/><feColorMatrix values="0 0 0 0 0.65098 0 0 0 0 0.670588 0 0 0 0 0.741176 0 0 0 1 0"/><feBlend in2="BackgroundImageFix" result="effect1_dropShadow_1_266"/><feBlend in="SourceGraphic" in2="effect1_dropShadow_1_266" result="shape"/></filter></defs></svg><svg fill="none" viewBox="0 0 40 40" id="icon-q-1" xmlns="http://www.w3.org/2000/svg"><rect width="40" height="40" rx="20" fill="#E7EBF0"/><rect x=".5" y=".5" width="39" height="39" rx="19.5" stroke="url(#fpaint0_linear_1_468)" stroke-opacity=".3" style="mix-blend-mode:hard-light"/><path d="M10.67 29.054a7.018 7.018 0 010-9.925l8.465-8.465a7.01 7.01 0 019.914 0c2.972 2.973 2.677 7.891-.518 10.677a75.438 75.438 0 00-3.377 3.102c-1.205 1.193-2.538 2.654-3.804 4.105-2.788 3.192-7.708 3.479-10.68.506z" fill="#fff" stroke="#2E3A59"/><path d="M9.106 27.398c-2.132-2.131-2.33-5.508-.401-7.799 1.723-2.047 3.783-4.398 5.547-6.143 1.551-1.534 3.604-3.322 5.44-4.86 2.29-1.92 5.661-1.72 7.79.409 2.523 2.524 2.278 6.706-.456 9.045-1.496 1.281-3.043 2.66-4.285 3.888-1.458 1.442-3.104 3.28-4.595 5.016-2.34 2.727-6.519 2.966-9.04.444z" fill="#fff" stroke="#2E3A59"/><rect x="17.436" y="14.515" width="6" height="6" rx="3" transform="rotate(-45 17.436 14.515)" fill="#FFD058" stroke="#2E3A59"/><g filter="url(#ffilter0_d_1_468)"><rect x="11" y="23" width="2" height="2" rx="1" transform="rotate(-45 11 23)" fill="#00C368"/></g><defs><linearGradient id="fpaint0_linear_1_468" x1="41.538" y1="40.769" x2="-2.154" y2="-1.231" gradientUnits="userSpaceOnUse"><stop stop-color="#fff"/><stop offset="1" stop-color="#fff" stop-opacity="0"/></linearGradient><filter id="ffilter0_d_1_468" x="10.414" y="21" width="6" height="6" filterUnits="userSpaceOnUse" color-interpolation-filters="sRGB"><feFlood flood-opacity="0" result="BackgroundImageFix"/><feColorMatrix in="SourceAlpha" values="0 0 0 0 0 0 0 0 0 0 0 0 0 0 0 0 0 0 127 0" result="hardAlpha"/><feOffset dx="1" dy="1"/><feGaussianBlur stdDeviation="1"/><feColorMatrix values="0 0 0 0 0 0 0 0 0 0.764706 0 0 0 0 0.407843 0 0 0 0.8 0"/><feBlend in2="BackgroundImageFix" result="effect1_dropShadow_1_468"/><feBlend in="SourceGraphic" in2="effect1_dropShadow_1_468" result="shape"/></filter></defs></svg><svg fill="none" viewBox="0 0 40 40" id="icon-q-2" xmlns="http://www.w3.org/2000/svg"><rect width="40" height="40" rx="20" fill="#E7EBF0"/><rect x=".5" y=".5" width="39" height="39" rx="19.5" stroke="url(#gpaint0_linear_1_448)" stroke-opacity=".3" style="mix-blend-mode:hard-light"/><path d="M12.5 18a7.5 7.5 0 0115 0v7.5h-15V18z" fill="#fff" stroke="#2E3A59"/><path fill="#2E3A59" d="M14 26h2v5h-2zM24 26h2v5h-2z"/><path fill="#A6ABBD" d="M13 23h14v2H13z"/><defs><linearGradient id="gpaint0_linear_1_448" x1="41.538" y1="40.769" x2="-2.154" y2="-1.231" gradientUnits="userSpaceOnUse"><stop stop-color="#fff"/><stop offset="1" stop-color="#fff" stop-opacity="0"/></linearGradient></defs></svg><svg fill="none" viewBox="0 0 40 40" id="icon-q-3" xmlns="http://www.w3.org/2000/svg"><rect width="40" height="40" rx="20" fill="#E7EBF0"/><rect x=".5" y=".5" width="39" height="39" rx="19.5" stroke="url(#hpaint0_linear_1_455)" stroke-opacity=".3" style="mix-blend-mode:hard-light"/><rect x="8.5" y="4.5" width="23" height="23" rx="11.5" fill="#fff" stroke="#2E3A59"/><rect x="16.5" y="32.5" width="7" height="4" rx="1.5" fill="#FFD058" stroke="#2E3A59"/><path d="M14.5 26.5h11V33a1.5 1.5 0 01-1.5 1.5h-8a1.5 1.5 0 01-1.5-1.5v-6.5z" fill="#A6ABBD" stroke="#2E3A59"/><path fill="#2E3A59" d="M15 28h1v1h-1zM24 28h1v1h-1zM15 30h1v1h-1zM24 30h1v1h-1zM15 32h1v1h-1zM24 32h1v1h-1zM5.99 33.803L33.79 6.005l.707.707L6.697 34.51z"/><defs><linearGradient id="hpaint0_linear_1_455" x1="41.538" y1="40.769" x2="-2.154" y2="-1.231" gradientUnits="userSpaceOnUse"><stop stop-color="#fff"/><stop offset="1" stop-color="#fff" stop-opacity="0"/></linearGradient></defs></svg><svg fill="none" viewBox="0 0 40 40" id="icon-q-4" xmlns="http://www.w3.org/2000/svg"><rect width="40" height="40" rx="20" fill="#E7EBF0"/><rect x=".5" y=".5" width="39" height="39" rx="19.5" stroke="url(#ipaint0_linear_1_431)" stroke-opacity=".3" style="mix-blend-mode:hard-light"/><path fill="#2E3A59" d="M15 15h1v10h-1z"/><path fill="#2E3A59" d="M15 15h1v10h-1z"/><path fill="#2E3A59" d="M15 15h1v10h-1z"/><path fill="#2E3A59" d="M20.567 9.358l.866.5-6.684 11.577-.866-.5z"/><path fill="#2E3A59" d="M20.567 9.358l.866.5-6.684 11.577-.866-.5z"/><path fill="#2E3A59" d="M20.567 9.358l.866.5-6.684 11.577-.866-.5z"/><path fill="#2E3A59" d="M25.142 13.567l.5.866-10.459 6.038-.5-.866z"/><path fill="#2E3A59" d="M25.142 13.567l.5.866-10.459 6.038-.5-.866z"/><path fill="#2E3A59" d="M25.142 13.567l.5.866-10.459 6.038-.5-.866z"/><path fill="#2E3A59" d="M25.643 25.567l-.5.866-11.374-6.567.5-.866z"/><path fill="#2E3A59" d="M25.643 25.567l-.5.866-11.374-6.567.5-.866z"/><path fill="#2E3A59" d="M25.643 25.567l-.5.866-11.374-6.567.5-.866z"/><path fill="#2E3A59" d="M21.433 30.143l-.866.5-7.794-13.5.866-.5z"/><path fill="#2E3A59" d="M21.433 30.143l-.866.5-7.794-13.5.866-.5z"/><path fill="#2E3A59" d="M21.433 30.143l-.866.5-7.794-13.5.866-.5z"/><rect x="6" y="13" width="14" height="14" rx="7" fill="#E7EBF0"/><path fill="#2E3A59" d="M12 8h1v24h-1z"/><path d="M27 20h-7" stroke="#2E3A59"/><path d="M12.5 14.522a5.5 5.5 0 010 10.956V14.522z" fill="#fff" stroke="#2E3A59"/><rect x="20.5" y="6.5" width="3" height="3" rx="1.5" fill="#FFD058" stroke="#2E3A59"/><rect x="25.5" y="11.5" width="3" height="3" rx="1.5" fill="#FFD058" stroke="#2E3A59"/><rect x="26.5" y="18.5" width="3" height="3" rx="1.5" fill="#FFD058" stroke="#2E3A59"/><rect x="25.5" y="25.5" width="3" height="3" rx="1.5" fill="#FFD058" stroke="#2E3A59"/><rect x="20.5" y="30.5" width="3" height="3" rx="1.5" fill="#FFD058" stroke="#2E3A59"/><defs><linearGradient id="ipaint0_linear_1_431" x1="41.538" y1="40.769" x2="-2.154" y2="-1.231" gradientUnits="userSpaceOnUse"><stop stop-color="#fff"/><stop offset="1" stop-color="#fff" stop-opacity="0"/></linearGradient></defs></svg><svg fill="none" viewBox="0 0 40 40" id="icon-q-5" xmlns="http://www.w3.org/2000/svg"><rect width="40" height="40" rx="20" fill="#E7EBF0"/><rect x=".5" y=".5" width="39" height="39" rx="19.5" stroke="url(#jpaint0_linear_1_424)" stroke-opacity=".3" style="mix-blend-mode:hard-light"/><rect x="8.5" y="8.5" width="23" height="23" rx="11.5" stroke="#2E3A59"/><rect x="12.5" y="12.5" width="15" height="15" rx="7.5" stroke="#2E3A59"/><path fill="#E7EBF0" d="M16 5h8v12h-8z"/><rect x="18.5" y="5.5" width="3" height="11" rx="1.5" fill="#FFD058" stroke="#2E3A59"/><defs><linearGradient id="jpaint0_linear_1_424" x1="41.538" y1="40.769" x2="-2.154" y2="-1.231" gradientUnits="userSpaceOnUse"><stop stop-color="#fff"/><stop offset="1" stop-color="#fff" stop-opacity="0"/></linearGradient></defs></svg><svg fill="none" viewBox="0 0 40 26" id="icon-quotes" xmlns="http://www.w3.org/2000/svg"><path d="M19.48 16.543c0 5.223-4.348 9.457-9.713 9.457-5.365 0-9.26-4.088-9.714-9.293C-.64 8.765 5.556 2.116 13.08 0c-2.564 1.51-4.353 4.135-4.651 7.189.44-.061.883-.104 1.339-.104 5.365 0 9.713 4.234 9.713 9.457zM40 16.543C40 21.765 35.651 26 30.286 26s-9.26-4.088-9.714-9.293C19.878 8.765 26.075 2.116 33.599 0c-2.565 1.51-4.353 4.135-4.652 7.189a9.75 9.75 0 011.339-.104c5.365 0 9.714 4.234 9.714 9.457z" fill="#00C368"/></svg><svg fill="none" viewBox="0 0 40 26" id="icon-quotes-grey" xmlns="http://www.w3.org/2000/svg"><path d="M19.48 16.543c0 5.223-4.348 9.457-9.713 9.457-5.365 0-9.26-4.088-9.714-9.293C-.64 8.765 5.556 2.116 13.08 0c-2.564 1.51-4.353 4.135-4.651 7.189.44-.061.883-.104 1.339-.104 5.365 0 9.713 4.234 9.713 9.457zM40 16.543C40 21.765 35.651 26 30.286 26s-9.26-4.088-9.714-9.293C19.878 8.765 26.075 2.116 33.599 0c-2.565 1.51-4.353 4.135-4.652 7.189a9.75 9.75 0 011.339-.104c5.365 0 9.714 4.234 9.714 9.457z" fill="#E7EBF0"/></svg><svg fill="none" viewBox="0 0 40 26" id="icon-quotes-grey-2" xmlns="http://www.w3.org/2000/svg"><path d="M20.52 9.458C20.52 4.234 24.868 0 30.233 0c5.365 0 9.26 4.088 9.714 9.293C40.64 17.235 34.444 23.884 26.92 26c2.565-1.51 4.354-4.135 4.652-7.189-.44.061-.883.104-1.339.104-5.365 0-9.713-4.234-9.713-9.457zM0 9.458C0 4.234 4.348 0 9.714 0c5.365 0 9.26 4.088 9.714 9.293.694 7.942-5.503 14.591-13.027 16.707 2.565-1.51 4.353-4.135 4.652-7.189-.44.061-.884.104-1.339.104C4.348 18.915 0 14.681 0 9.458z" fill="#E7EBF0"/></svg><svg fill="none" viewBox="0 0 40 26" id="icon-quotes-reverse" xmlns="http://www.w3.org/2000/svg"><path d="M20.52 9.458C20.52 4.234 24.868 0 30.233 0c5.365 0 9.26 4.088 9.714 9.293C40.64 17.235 34.444 23.884 26.92 26c2.565-1.51 4.354-4.135 4.652-7.189-.44.061-.883.104-1.339.104-5.365 0-9.713-4.234-9.713-9.457zM0 9.458C0 4.234 4.348 0 9.714 0c5.365 0 9.26 4.088 9.714 9.293.694 7.942-5.503 14.591-13.027 16.707 2.565-1.51 4.353-4.135 4.652-7.189-.44.061-.884.104-1.339.104C4.348 18.915 0 14.681 0 9.458z" fill="#00C368"/></svg><svg fill="none" viewBox="0 0 11 19" id="icon-right" xmlns="http://www.w3.org/2000/svg"><path d="M.3.3c-.4.4-.4 1 0 1.4l7.8 7.8-7.8 7.8c-.4.4-.4 1 0 1.4.4.4 1 .4 1.4 0l8.5-8.5c.4-.4.4-1 0-1.4L1.7.3C1.3-.1.7-.1.3.3z" fill="#A6ABBD"/></svg><svg fill="none" viewBox="0 0 109 99" id="icon-same" xmlns="http://www.w3.org/2000/svg"><g filter="url(#pfilter0_d_1_284)" stroke="#2E3A59" stroke-width="2"><path d="M15.16 61.542c-5.857-5.858-5.857-15.355 0-21.213l25.554-25.553c5.858-5.858 15.355-5.858 21.213 0l4.448 4.448c6.364 6.364 5.74 16.899-1.145 22.78-3.85 3.29-7.849 6.845-11.044 10.005-3.74 3.7-7.974 8.436-11.789 12.888-5.884 6.866-16.406 7.475-22.762 1.119l-4.474-4.474z"/><path d="M13.136 59.287c-5.37-5.37-5.872-13.883-1.01-19.666 4.383-5.212 9.662-11.246 14.176-15.71 3.978-3.935 9.252-8.521 13.933-12.44 5.785-4.843 14.285-4.332 19.647 1.03l.4.4c6.365 6.364 5.74 16.899-1.145 22.78-3.85 3.29-7.849 6.845-11.043 10.005-3.74 3.7-7.975 8.436-11.79 12.888-5.883 6.866-16.406 7.475-22.762 1.12l-.406-.407z"/><rect x="34.152" y="26.767" width="15.665" height="15.665" rx="7.833" transform="rotate(-45 34.152 26.767)"/><rect x="69.5" y="64" width="26" height="22" rx="1"/><path d="M71.5 41c7 2 11 5 11 15.999"/></g><defs><filter id="pfilter0_d_1_284" x="3.773" y="3.137" width="104.727" height="95.862" filterUnits="userSpaceOnUse" color-interpolation-filters="sRGB"><feFlood flood-opacity="0" result="BackgroundImageFix"/><feColorMatrix in="SourceAlpha" values="0 0 0 0 0 0 0 0 0 0 0 0 0 0 0 0 0 0 127 0" result="hardAlpha"/><feOffset dx="4" dy="4"/><feGaussianBlur stdDeviation="4"/><feColorMatrix values="0 0 0 0 0.65098 0 0 0 0 0.670588 0 0 0 0 0.741176 0 0 0 1 0"/><feBlend in2="BackgroundImageFix" result="effect1_dropShadow_1_284"/><feBlend in="SourceGraphic" in2="effect1_dropShadow_1_284" result="shape"/></filter></defs></svg><svg fill="none" viewBox="0 0 19 11" id="icon-up" xmlns="http://www.w3.org/2000/svg"><path d="M.3 10.2c.4.4 1 .4 1.4 0l7.8-7.8 7.8 7.8c.4.4 1 .4 1.4 0 .4-.4.4-1 0-1.4L10.2.3c-.4-.4-1-.4-1.4 0L.3 8.8c-.4.4-.4 1 0 1.4z" fill="#A6ABBD"/></svg><svg fill="none" viewBox="0 0 304 93" id="logo" xmlns="http://www.w3.org/2000/svg"><path d="M271.792 36.827c0 1.819-.454 4.092-1.361 6.365-.907 2.274-2.268 4.092-3.629 6.365-1.361 2.274-3.176 4.092-4.99 5.456a23502.46 23502.46 0 00-4.99 5.002l-3.176 2.273v.455l3.629-.91h9.527l-1.361 5.91h-20.868l.908-3.636c.907-.91 2.268-2.274 3.629-3.183l4.083-4.092 4.536-4.547c1.361-1.363 2.722-3.182 3.629-4.546.907-1.364 1.815-3.183 2.722-4.547.907-1.364.907-2.728.907-4.092 0-1.364-.453-2.273-.907-2.727-.454-.91-1.815-1.364-3.629-1.364-.907 0-2.268.454-3.629.909-1.361.455-2.268 1.364-3.629 2.273l-1.815-5.001c1.815-1.364 3.629-2.273 5.444-2.728 1.814-.455 3.629-.91 6.351-.91 2.721 0 4.536.91 6.351 2.274 1.814.455 2.268 2.728 2.268 5.001zM301.278 56.832h-5.897l-2.268 10.911h-6.351l2.268-10.911h-15.424l.908-4.092 21.321-23.642h5.443l-4.536 22.278h5.897l-1.361 5.456zm-9.073-14.095l1.361-4.546-2.722 4.092-6.804 7.274-3.176 2.273 3.176-.454h5.897l2.268-8.639z" fill="#A6ABBD"/><path d="M304 17.277l-1.815.455-5.443 1.364-15.424 3.182 2.722-9.093c-21.321-5.91-43.549 6.365-49.9 27.734-6.805 21.369 4.536 44.102 25.404 51.831-22.229-7.73-34.931-31.826-27.672-55.014 7.258-22.732 31.301-35.917 53.983-29.098L288.123 0 304 17.277z" fill="#00C368"/><path d="M9.863 54.476L7.666 67H.513l6.176-35.547 12.452.024c3.84 0 6.86 1.067 9.057 3.199 2.197 2.132 3.158 4.915 2.881 8.35-.26 3.482-1.717 6.266-4.37 8.349-2.637 2.083-6.006 3.125-10.107 3.125l-6.739-.024zm1.001-5.933l5.957.049c1.92 0 3.516-.497 4.785-1.49 1.27-.992 2.027-2.335 2.271-4.028.244-1.692-.033-3.043-.83-4.052-.781-1.01-1.945-1.547-3.491-1.612l-6.739-.024-1.953 11.157zm36.426 5.444h-5.81L39.209 67h-7.153l6.176-35.547L50 31.477c3.939 0 6.966.928 9.082 2.784 2.132 1.855 3.076 4.435 2.832 7.739-.342 4.883-2.946 8.276-7.812 10.18l5.004 14.43V67H51.49L47.29 53.987zm-4.785-5.932l5.322.048c1.888-.032 3.443-.537 4.663-1.513 1.237-.993 1.978-2.336 2.222-4.029.228-1.578-.025-2.815-.757-3.71-.732-.896-1.896-1.376-3.491-1.44l-6.104-.025-1.855 10.669zm35.034 19.433c-2.36-.049-4.443-.602-6.25-1.66-1.79-1.074-3.215-2.612-4.272-4.614-1.042-2.018-1.644-4.33-1.807-6.934-.18-2.669.106-5.517.855-8.545.748-3.027 1.953-5.688 3.613-7.983s3.605-4.012 5.835-5.151c2.246-1.14 4.67-1.685 7.275-1.636 2.393.049 4.484.618 6.275 1.709 1.79 1.074 3.198 2.628 4.223 4.663 1.025 2.018 1.611 4.313 1.758 6.885.163 2.864-.147 5.81-.928 8.838-.781 3.027-1.994 5.647-3.638 7.86-1.643 2.214-3.572 3.875-5.786 4.981-2.197 1.107-4.581 1.636-7.153 1.587zM87.671 48.25l.195-2.32c.163-2.897-.228-5.094-1.172-6.591-.927-1.497-2.343-2.279-4.248-2.344-2.978-.097-5.346 1.22-7.104 3.955-1.742 2.735-2.726 6.56-2.954 11.475-.163 2.88.22 5.102 1.147 6.665.928 1.546 2.368 2.352 4.321 2.417 2.556.114 4.672-.88 6.348-2.979 1.677-2.116 2.775-5.102 3.296-8.96l.17-1.318zM96.997 67l6.177-35.547 10.205.024c2.392.05 4.541.595 6.445 1.636 1.921 1.026 3.475 2.507 4.663 4.444 1.188 1.936 1.905 4.117 2.149 6.543.13 1.416.114 2.864-.049 4.345l-.171 1.294c-.716 5.209-2.767 9.392-6.152 12.55-3.369 3.14-7.463 4.711-12.281 4.711H96.997zm12.305-29.614l-4.126 23.73 2.978.025c3.288 0 5.925-1.205 7.91-3.614 2.002-2.409 3.15-6.046 3.443-10.913l.049-.781c.048-2.685-.464-4.744-1.538-6.177-1.075-1.432-2.678-2.18-4.81-2.246l-3.906-.024zm51.904-5.933l-4.004 23.438c-.553 3.922-2.181 7.023-4.883 9.301-2.701 2.279-6.054 3.386-10.058 3.32-2.507-.048-4.688-.593-6.543-1.635-1.839-1.058-3.198-2.54-4.077-4.443-.879-1.921-1.18-4.094-.904-6.519l3.98-23.462h7.153l-3.979 23.487a10.465 10.465 0 00-.025 2.563c.326 2.637 1.896 4.004 4.712 4.102 2.018.065 3.67-.489 4.956-1.66 1.286-1.172 2.116-2.849 2.49-5.03l4.004-23.462h7.178zm28.735 23.682c-.276 2.457-1.115 4.638-2.514 6.543-1.4 1.888-3.223 3.344-5.469 4.37-2.246 1.009-4.671 1.49-7.275 1.44-2.344-.049-4.387-.586-6.128-1.611-1.742-1.042-3.117-2.54-4.126-4.492-.993-1.97-1.555-4.232-1.685-6.787-.114-2.002.09-4.492.61-7.471.538-2.979 1.482-5.623 2.833-7.935 1.367-2.31 2.986-4.142 4.858-5.493 2.637-1.888 5.648-2.8 9.033-2.734 3.679.065 6.592 1.204 8.74 3.418 2.165 2.197 3.353 5.257 3.565 9.18l-7.129-.025c0-2.246-.448-3.89-1.343-4.932-.895-1.041-2.287-1.595-4.175-1.66-2.441-.081-4.451.79-6.03 2.613-1.562 1.823-2.612 4.484-3.149 7.983-.521 3.402-.749 5.949-.684 7.642.081 2.148.562 3.735 1.44 4.76.879 1.01 2.108 1.538 3.687 1.587 2.181.082 3.923-.431 5.225-1.538 1.318-1.123 2.189-2.726 2.612-4.81l7.104-.048zm33.399-17.75h-10.547L207.666 67h-7.153l5.127-29.614h-10.425l1.05-5.933h28.125l-1.05 5.933z" fill="#A6ABBD"/></svg></svg>